<?xml version="1.0" encoding="UTF-8" standalone="no"?>
<!DOCTYPE svg PUBLIC "-//W3C//DTD SVG 1.1//EN" "http://www.w3.org/Graphics/SVG/1.1/DTD/svg11.dtd">
<svg version="1.1" xmlns="http://www.w3.org/2000/svg" xmlns:xlink="http://www.w3.org/1999/xlink" preserveAspectRatio="xMidYMid meet" viewBox="0 0 640 640" width="640" height="640"><defs><path d="M580.88 54.82C590.47 54.82 598.24 62.59 598.24 72.18C598.24 161.46 598.24 411.91 598.24 501.19C598.24 510.78 590.47 518.55 580.88 518.55C491.6 518.55 241.15 518.55 151.87 518.55C142.28 518.55 134.51 510.78 134.51 501.19C134.51 411.91 134.51 161.46 134.51 72.18C134.51 62.59 142.28 54.82 151.87 54.82C241.15 54.82 491.6 54.82 580.88 54.82Z" id="b30IlOHzSH"></path><path d="M499.34 127.14C508.93 127.14 516.7 134.92 516.7 144.51C516.7 233.78 516.7 484.24 516.7 573.51C516.7 583.1 508.93 590.88 499.34 590.88C410.06 590.88 159.61 590.88 70.33 590.88C60.74 590.88 52.97 583.1 52.97 573.51C52.97 484.24 52.97 233.78 52.97 144.51C52.97 134.92 60.74 127.14 70.33 127.14C159.61 127.14 410.06 127.14 499.34 127.14Z" id="b18z2KdnYq"></path><path d="M107.36 192.98L460.41 192.98L460.41 233.06L107.36 233.06L107.36 192.98Z" id="a4utsz6phE"></path><path d="M107.36 266.65L460.41 266.65L460.41 306.72L107.36 306.72L107.36 266.65Z" id="gQVhuP3X9"></path><path d="M107.36 343.17L460.41 343.17L460.41 383.25L107.36 383.25L107.36 343.17Z" id="g1cA2vfyCY"></path><path d="M107.36 425.42L302.01 425.42L302.01 465.5L107.36 465.5L107.36 425.42Z" id="ajiqmFLkz"></path></defs><g><g><g><use xlink:href="#b30IlOHzSH" opacity="1" fill="#ffffff" fill-opacity="1"></use><g><use xlink:href="#b30IlOHzSH" opacity="1" fill-opacity="0" stroke="#154e9f" stroke-width="51" stroke-opacity="1"></use></g></g><g><use xlink:href="#b18z2KdnYq" opacity="1" fill="#ffffff" fill-opacity="1"></use><g><use xlink:href="#b18z2KdnYq" opacity="1" fill-opacity="0" stroke="#154e9f" stroke-width="51" stroke-opacity="1"></use></g></g><g><use xlink:href="#a4utsz6phE" opacity="1" fill="#154e9f" fill-opacity="1"></use></g><g><use xlink:href="#gQVhuP3X9" opacity="1" fill="#154e9f" fill-opacity="1"></use></g><g><use xlink:href="#g1cA2vfyCY" opacity="1" fill="#154e9f" fill-opacity="1"></use></g><g><use xlink:href="#ajiqmFLkz" opacity="1" fill="#154e9f" fill-opacity="1"></use></g></g></g></svg>